<?xml version="1.0" standalone="no"?><!DOCTYPE svg PUBLIC "-//W3C//DTD SVG 1.1//EN" "http://www.w3.org/Graphics/SVG/1.1/DTD/svg11.dtd"><svg t="1572241924851" class="icon" viewBox="0 0 1024 1024" version="1.1" xmlns="http://www.w3.org/2000/svg" p-id="4425" xmlns:xlink="http://www.w3.org/1999/xlink" width="200" height="200"><defs><style type="text/css"></style></defs><path d="M682.338867 154.04253h-64.23707V54.894773h-158.292221v99.112635h-64.377555V77.126629L445.725888 26.79764h186.389354l50.258746 50.328989v76.915901z" fill="#409EFF" p-id="4426"></path><path d="M796.342983 111.440252H281.427905a82.710934 82.710934 0 0 0-82.816298 82.85142v739.762382a82.781177 82.781177 0 0 0 82.816298 82.886541h514.915078c44.39347 0 82.85142-38.563315 82.85142-85.83674V194.291672a82.640691 82.640691 0 0 0-82.85142-82.85142z m28.623953 768.667307c0 40.705721-32.346824 73.895459-69.610646 73.895459H322.48484c-39.6872 0-69.610646-33.154617-69.610646-71.331595V245.709425c0-40.740842 32.311703-71.331596 69.610646-71.331595H755.35629c39.827686 0 69.610646 33.084374 69.610646 71.331595v634.398134z" fill="#409EFF" p-id="4427"></path><path d="M432.37975 610.97215h124.25957l-73.965702 248.55426v3.020441c0 8.850597 0 8.850597 5.900398 8.850597 2.98532 0 5.935519-2.879956 8.885718-5.935519l189.374674-310.684045c2.98532-5.900398 2.98532-8.885718 2.98532-11.800795 0-8.92084-5.970641-14.821237-11.800795-14.821238h-77.021265l53.34943-156.817121v-8.885719c0-2.950199-3.020442-8.885718-3.020441-11.835917-2.915078-2.915078-5.900398-5.865276-8.885719-2.915077h-139.010563c-5.935519 0-8.885718 2.915078-11.871039 8.885718l-103.537934 242.618741v5.865276c0 11.835917 38.422829 5.900398 44.358348 5.900398z" fill="#409EFF" p-id="4428"></path></svg>